<?xml version="1.0" standalone="no"?>
<!DOCTYPE svg PUBLIC "-//W3C//DTD SVG 20010904//EN"
 "http://www.w3.org/TR/2001/REC-SVG-20010904/DTD/svg10.dtd">
<svg version="1.0" xmlns="http://www.w3.org/2000/svg"
 width="228.000000pt" height="228.000000pt" viewBox="0 0 228.000000 228.000000"
 preserveAspectRatio="xMidYMid meet">
<metadata>
Created by potrace 1.11, written by Peter Selinger 2001-2013
</metadata>
<g transform="translate(0.000000,228.000000) scale(0.100000,-0.100000)"
fill="#000000" stroke="none">
<path d="M1229 2251 c-91 -68 -155 -126 -309 -278 l-166 -163 -39 41 c-22 22
-66 59 -98 81 -60 41 -69 54 -87 126 -6 24 -17 42 -25 42 -19 0 -23 -20 -13
-58 5 -19 8 -35 6 -37 -2 -2 -28 7 -58 20 -82 36 -174 29 -188 -13 -3 -11 0
-12 16 -3 43 23 81 14 216 -49 39 -19 46 -25 34 -34 -18 -13 -51 -76 -44 -83
8 -8 26 7 26 22 0 17 31 26 76 22 23 -1 48 -17 89 -55 l57 -54 -28 -30 c-16
-16 -73 -69 -128 -116 -128 -113 -254 -255 -322 -364 -57 -92 -66 -122 -37
-116 10 2 34 36 57 80 50 99 160 225 341 388 l139 127 26 -31 c19 -22 25 -41
25 -75 0 -43 2 -46 28 -49 38 -5 88 -76 66 -96 -8 -7 -54 -46 -103 -87 -235
-195 -453 -511 -561 -809 -38 -105 -42 -96 -24 54 10 86 42 265 55 314 7 25
-16 31 -35 9 -12 -15 -37 -119 -45 -192 -4 -27 -13 -104 -21 -170 -8 -66 -15
-164 -15 -218 0 -95 1 -97 20 -87 11 6 20 21 20 34 0 13 6 26 14 29 7 3 19 33
25 68 32 160 135 387 264 581 62 93 113 155 212 253 71 72 151 145 176 162
l47 33 41 -63 c50 -77 125 -269 109 -278 -14 -9 -23 -189 -10 -189 14 0 22 26
22 71 0 73 27 36 45 -61 21 -114 117 -270 166 -270 32 0 24 43 -11 64 -52 30
-101 125 -130 249 -6 31 -5 37 5 33 8 -3 29 -8 48 -11 30 -6 37 -3 47 15 14
27 1 40 -41 40 -14 0 -40 5 -56 11 -26 8 -33 19 -43 57 -22 88 -90 257 -125
309 l-35 53 78 45 c183 107 347 132 412 63 37 -40 50 -137 31 -235 -5 -27 -5
-43 2 -43 5 0 7 -12 3 -27 -38 -173 -48 -254 -44 -378 4 -117 7 -135 31 -182
31 -59 66 -83 124 -83 39 0 113 36 121 58 6 19 -23 14 -43 -8 -25 -28 -84 -27
-114 2 -13 11 -33 42 -45 67 -32 70 -30 289 6 466 31 154 34 230 13 301 -13
44 -22 57 -61 82 -103 69 -280 46 -457 -57 l-67 -40 -25 48 c-13 27 -22 51
-19 54 12 12 -8 47 -27 47 -10 0 -19 4 -19 9 0 5 -16 29 -36 53 l-37 43 190
185 c104 102 229 213 277 248 85 59 87 62 55 61 -21 0 -48 -11 -70 -28z"/>
<path d="M1803 2253 c8 -16 22 -64 32 -108 9 -44 46 -156 82 -250 36 -93 75
-207 88 -251 27 -97 30 -104 56 -104 14 0 19 -7 19 -30 0 -46 -53 -180 -122
-308 -139 -261 -202 -412 -180 -434 24 -24 45 -2 71 77 15 44 73 170 128 280
149 294 185 415 126 423 -23 3 -23 3 -55 127 -5 22 -39 114 -75 205 -36 91
-76 204 -89 253 -30 110 -49 147 -75 147 -18 0 -18 -2 -6 -27z"/>
<path d="M1140 1876 c-81 -30 -102 -43 -142 -86 l-48 -51 0 40 c0 40 -12 53
-26 29 -4 -7 -9 -42 -10 -79 l-2 -67 32 10 c17 5 37 11 45 12 18 3 48 46 33
46 -6 0 -23 -5 -39 -10 -24 -9 -21 -4 22 38 41 40 65 53 137 77 115 37 217 33
299 -12 63 -34 82 -62 185 -269 109 -221 157 -280 209 -256 33 15 33 42 0 42
-14 0 -36 7 -49 15 -33 22 -87 113 -131 220 -20 50 -46 106 -59 125 -12 19
-28 49 -35 66 -31 79 -129 134 -250 140 -68 4 -86 1 -171 -30z"/>
<path d="M319 501 c-20 -16 -21 -21 -10 -35 18 -22 44 -20 66 4 15 16 15 22 5
35 -17 20 -33 19 -61 -4z"/>
<path d="M838 488 c-14 -26 -17 -122 -5 -185 7 -41 6 -43 -20 -49 -53 -11 -58
-18 -15 -22 l42 -3 1 -52 c2 -86 -2 -111 -17 -123 -8 -6 -14 -19 -14 -28 0
-37 60 -5 79 43 8 17 11 59 9 100 -2 41 1 73 7 75 6 3 6 7 -1 13 -17 13 -37
148 -29 195 7 39 8 40 21 23 8 -10 14 -29 14 -42 0 -14 6 -23 15 -23 14 0 20
18 15 50 -7 49 -79 68 -102 28z"/>
<path d="M1150 435 c0 -2 9 -19 20 -37 26 -42 25 -48 -4 -48 -17 0 -27 -9 -36
-30 l-13 -30 -23 25 c-13 14 -32 25 -42 25 -23 0 -46 -25 -37 -40 9 -14 32
-13 38 3 2 6 10 -6 17 -29 9 -31 9 -46 1 -62 -6 -11 -11 -23 -11 -25 0 -11
113 -18 123 -8 8 8 7 11 -4 11 -8 0 -19 8 -26 19 -9 15 -8 23 3 40 8 11 21 38
29 58 14 37 14 34 12 -62 -1 -55 -6 -108 -11 -118 -12 -25 8 -22 41 7 25 21
28 32 31 99 5 85 -8 133 -45 177 -21 25 -63 42 -63 25z"/>
<path d="M1866 393 c23 -37 29 -62 32 -130 4 -76 3 -83 -14 -83 -32 0 -56 57
-44 105 13 55 13 55 -15 55 -14 0 -25 -4 -25 -9 0 -6 -14 -11 -32 -13 -31 -3
-53 -28 -25 -28 8 0 17 -7 21 -15 6 -16 -24 -105 -36 -105 -20 0 -23 185 -3
233 7 16 4 18 -21 15 -24 -2 -30 -10 -42 -48 -19 -65 -12 -175 13 -199 31 -29
92 -34 117 -9 14 14 23 17 31 9 6 -6 24 -11 40 -11 16 0 26 -4 22 -10 -6 -10
7 -14 35 -10 25 3 40 32 40 77 l0 43 21 -21 c15 -15 31 -20 60 -18 31 3 42 -1
55 -19 9 -13 26 -22 40 -22 22 0 23 2 14 21 -6 11 -11 58 -11 104 0 62 -3 86
-15 96 -22 18 -33 1 -40 -66 -5 -47 -11 -64 -30 -78 -24 -18 -24 -18 -39 17
-8 19 -15 51 -15 70 0 25 -6 38 -19 46 -25 13 -29 13 -28 -2 0 -7 -1 -22 -2
-33 -2 -20 -2 -20 -14 0 -29 50 -62 85 -79 85 -17 0 -16 -4 8 -47z"/>
<path d="M960 395 c-14 -17 -29 -178 -20 -214 7 -27 19 -35 36 -23 17 11 26
252 9 252 -7 0 -18 -7 -25 -15z"/>
<path d="M1461 386 c-19 -22 -25 -84 -11 -101 7 -8 28 -15 46 -15 l34 0 0 -60
c0 -58 -1 -60 -26 -60 -38 0 -94 -30 -104 -55 -4 -12 -5 -37 -1 -56 6 -32 9
-34 55 -37 54 -4 79 13 119 78 12 19 28 40 37 47 13 11 13 12 -1 13 -13 0 -17
16 -22 76 -4 42 -4 93 -1 114 6 35 4 39 -26 54 -41 20 -84 21 -99 2z m54 -55
c3 -23 0 -31 -12 -31 -10 0 -13 6 -9 16 3 9 6 25 6 36 0 31 10 16 15 -21z m11
-232 c-6 -33 -42 -89 -56 -89 -15 0 -30 36 -30 69 0 34 20 50 64 51 27 0 28
-2 22 -31z"/>
<path d="M393 349 c-30 -30 -31 -31 -38 -10 -11 34 -52 27 -91 -16 -19 -20
-34 -41 -34 -45 0 -17 30 -7 49 18 43 55 61 -14 19 -77 -15 -23 -28 -48 -28
-56 0 -22 33 -11 46 15 18 36 22 37 48 9 24 -26 57 -34 90 -21 25 9 19 22 -11
26 -20 2 -33 13 -47 39 l-19 36 36 48 c20 26 37 52 37 56 0 18 -27 8 -57 -22z"/>
<path d="M1333 362 c-6 -4 -13 -20 -15 -37 -2 -22 -9 -31 -28 -35 -25 -6 -25
-6 -2 -12 17 -5 22 -13 22 -41 0 -27 5 -37 20 -42 28 -9 37 -1 44 40 5 26 12
35 26 35 11 0 20 5 20 10 0 6 -9 10 -20 10 -15 0 -20 7 -20 24 0 14 -7 32 -16
40 -18 18 -16 18 -31 8z"/>
<path d="M550 267 c-26 -8 -30 -11 -16 -15 28 -6 145 8 151 19 8 12 -91 10
-135 -4z"/>
<path d="M534 205 c-17 -13 -14 -14 37 -15 33 0 63 6 75 15 17 13 14 14 -37
15 -33 0 -63 -6 -75 -15z"/>
<path d="M2255 180 c3 -5 10 -10 16 -10 5 0 9 5 9 10 0 6 -7 10 -16 10 -8 0
-12 -4 -9 -10z"/>
</g>
</svg>
